{
	"asset":{
		"generator":"Khronos glTF Blender I/O v3.5.30",
		"version":"2.0"
	},
	"scene":0,
	"scenes":[
		{
			"name":"Scene",
			"nodes":[
				0,
				1,
				2,
				3,
				4,
				5
			]
		}
	],
	"nodes":[
		{
			"mesh":0,
			"name":"Cube",
			"rotation":[
				0,
				1,
				0,
				0
			],
			"scale":[
				-1,
				-0.10867726802825928,
				-2.123594045639038
			]
		},
		{
			"mesh":1,
			"name":"Cube.001",
			"scale":[
				0.15336006879806519,
				0.8033277988433838,
				0.15336006879806519
			],
			"translation":[
				0.7879956364631653,
				-0.9101977944374084,
				1.9124387502670288
			]
		},
		{
			"mesh":2,
			"name":"Cube.002",
			"scale":[
				0.15336006879806519,
				0.8033277988433838,
				0.15336006879806519
			],
			"translation":[
				0.7879956364631653,
				-0.9101977944374084,
				1.9124387502670288
			]
		},
		{
			"mesh":3,
			"name":"Cube.003",
			"scale":[
				0.15336006879806519,
				0.8033277988433838,
				0.15336006879806519
			],
			"translation":[
				-0.7879956364631653,
				-0.9101977944374084,
				1.9124387502670288
			]
		},
		{
			"mesh":4,
			"name":"Cube.004",
			"scale":[
				0.15336006879806519,
				0.8033277988433838,
				0.15336006879806519
			],
			"translation":[
				0.7879956364631653,
				-0.9101977944374084,
				-1.9035850763320923
			]
		},
		{
			"mesh":5,
			"name":"Cube.005",
			"scale":[
				0.15336006879806519,
				0.8033277988433838,
				0.15336006879806519
			],
			"translation":[
				-0.7879956364631653,
				-0.9101977944374084,
				-1.9035850763320923
			]
		}
	],
	"materials":[
		{
			"doubleSided":true,
			"name":"Material",
			"pbrMetallicRoughness":{
				"baseColorFactor":[
					0.800000011920929,
					0.800000011920929,
					0.800000011920929,
					1
				],
				"metallicFactor":0,
				"roughnessFactor":0.5
			}
		}
	],
	"meshes":[
		{
			"name":"Cube",
			"primitives":[
				{
					"attributes":{
						"POSITION":0,
						"TEXCOORD_0":1,
						"NORMAL":2
					},
					"indices":3,
					"material":0
				}
			]
		},
		{
			"name":"Cube.001",
			"primitives":[
				{
					"attributes":{
						"POSITION":4,
						"TEXCOORD_0":5,
						"NORMAL":6
					},
					"indices":7
				}
			]
		},
		{
			"name":"Cube.002",
			"primitives":[
				{
					"attributes":{
						"POSITION":8,
						"TEXCOORD_0":9,
						"NORMAL":10
					},
					"indices":7
				}
			]
		},
		{
			"name":"Cube.003",
			"primitives":[
				{
					"attributes":{
						"POSITION":11,
						"TEXCOORD_0":12,
						"NORMAL":13
					},
					"indices":7
				}
			]
		},
		{
			"name":"Cube.004",
			"primitives":[
				{
					"attributes":{
						"POSITION":14,
						"TEXCOORD_0":15,
						"NORMAL":16
					},
					"indices":7
				}
			]
		},
		{
			"name":"Cube.005",
			"primitives":[
				{
					"attributes":{
						"POSITION":17,
						"TEXCOORD_0":18,
						"NORMAL":19
					},
					"indices":7
				}
			]
		}
	],
	"accessors":[
		{
			"bufferView":0,
			"componentType":5126,
			"count":5424,
			"max":[
				1.043142318725586,
				1,
				1
			],
			"min":[
				-1.043142318725586,
				-19.720245361328125,
				-1
			],
			"type":"VEC3"
		},
		{
			"bufferView":1,
			"componentType":5126,
			"count":5424,
			"type":"VEC2"
		},
		{
			"bufferView":2,
			"componentType":5126,
			"count":5424,
			"type":"VEC3"
		},
		{
			"bufferView":3,
			"componentType":5123,
			"count":8136,
			"type":"SCALAR"
		},
		{
			"bufferView":4,
			"componentType":5126,
			"count":24,
			"max":[
				1,
				1,
				1
			],
			"min":[
				-1,
				-1,
				-1
			],
			"type":"VEC3"
		},
		{
			"bufferView":5,
			"componentType":5126,
			"count":24,
			"type":"VEC2"
		},
		{
			"bufferView":6,
			"componentType":5126,
			"count":24,
			"type":"VEC3"
		},
		{
			"bufferView":7,
			"componentType":5123,
			"count":36,
			"type":"SCALAR"
		},
		{
			"bufferView":8,
			"componentType":5126,
			"count":24,
			"max":[
				1,
				1,
				1
			],
			"min":[
				-1,
				-1,
				-1
			],
			"type":"VEC3"
		},
		{
			"bufferView":9,
			"componentType":5126,
			"count":24,
			"type":"VEC2"
		},
		{
			"bufferView":10,
			"componentType":5126,
			"count":24,
			"type":"VEC3"
		},
		{
			"bufferView":11,
			"componentType":5126,
			"count":24,
			"max":[
				1,
				1,
				1
			],
			"min":[
				-1,
				-1,
				-1
			],
			"type":"VEC3"
		},
		{
			"bufferView":12,
			"componentType":5126,
			"count":24,
			"type":"VEC2"
		},
		{
			"bufferView":13,
			"componentType":5126,
			"count":24,
			"type":"VEC3"
		},
		{
			"bufferView":14,
			"componentType":5126,
			"count":24,
			"max":[
				1,
				1,
				1
			],
			"min":[
				-1,
				-1,
				-1
			],
			"type":"VEC3"
		},
		{
			"bufferView":15,
			"componentType":5126,
			"count":24,
			"type":"VEC2"
		},
		{
			"bufferView":16,
			"componentType":5126,
			"count":24,
			"type":"VEC3"
		},
		{
			"bufferView":17,
			"componentType":5126,
			"count":24,
			"max":[
				1,
				1,
				1
			],
			"min":[
				-1,
				-1,
				-1
			],
			"type":"VEC3"
		},
		{
			"bufferView":18,
			"componentType":5126,
			"count":24,
			"type":"VEC2"
		},
		{
			"bufferView":19,
			"componentType":5126,
			"count":24,
			"type":"VEC3"
		}
	],
	"bufferViews":[
		{
			"buffer":0,
			"byteLength":65088,
			"byteOffset":0,
			"target":34962
		},
		{
			"buffer":0,
			"byteLength":43392,
			"byteOffset":65088,
			"target":34962
		},
		{
			"buffer":0,
			"byteLength":65088,
			"byteOffset":108480,
			"target":34962
		},
		{
			"buffer":0,
			"byteLength":16272,
			"byteOffset":173568,
			"target":34963
		},
		{
			"buffer":0,
			"byteLength":288,
			"byteOffset":189840,
			"target":34962
		},
		{
			"buffer":0,
			"byteLength":192,
			"byteOffset":190128,
			"target":34962
		},
		{
			"buffer":0,
			"byteLength":288,
			"byteOffset":190320,
			"target":34962
		},
		{
			"buffer":0,
			"byteLength":72,
			"byteOffset":190608,
			"target":34963
		},
		{
			"buffer":0,
			"byteLength":288,
			"byteOffset":190680,
			"target":34962
		},
		{
			"buffer":0,
			"byteLength":192,
			"byteOffset":190968,
			"target":34962
		},
		{
			"buffer":0,
			"byteLength":288,
			"byteOffset":191160,
			"target":34962
		},
		{
			"buffer":0,
			"byteLength":288,
			"byteOffset":191448,
			"target":34962
		},
		{
			"buffer":0,
			"byteLength":192,
			"byteOffset":191736,
			"target":34962
		},
		{
			"buffer":0,
			"byteLength":288,
			"byteOffset":191928,
			"target":34962
		},
		{
			"buffer":0,
			"byteLength":288,
			"byteOffset":192216,
			"target":34962
		},
		{
			"buffer":0,
			"byteLength":192,
			"byteOffset":192504,
			"target":34962
		},
		{
			"buffer":0,
			"byteLength":288,
			"byteOffset":192696,
			"target":34962
		},
		{
			"buffer":0,
			"byteLength":288,
			"byteOffset":192984,
			"target":34962
		},
		{
			"buffer":0,
			"byteLength":192,
			"byteOffset":193272,
			"target":34962
		},
		{
			"buffer":0,
			"byteLength":288,
			"byteOffset":193464,
			"target":34962
		}
	],
	"buffers":[
		{
			"byteLength":193752,
			"uri":"data:application/octet-stream;base64,"
		}
	]
}
